<?xml version="1.0" standalone="no"?>
<!DOCTYPE svg PUBLIC "-//W3C//DTD SVG 20010904//EN"
 "http://www.w3.org/TR/2001/REC-SVG-20010904/DTD/svg10.dtd">
<svg version="1.0" xmlns="http://www.w3.org/2000/svg"
 width="360.000000pt" height="360.000000pt" viewBox="0 0 360.000000 360.000000"
 preserveAspectRatio="xMidYMid meet">
<metadata>
Created by potrace 1.11, written by Peter Selinger 2001-2013
</metadata>
<g transform="translate(0.000000,360.000000) scale(0.100000,-0.100000)"
fill="#000000" stroke="none">
<path d="M443 3578 c25 -34 30 -46 23 -63 -4 -12 -10 -13 -24 -6 -27 14 -62 2
-62 -21 0 -10 11 -30 25 -44 14 -14 25 -30 25 -37 0 -7 11 -25 24 -41 20 -26
29 -30 69 -27 64 3 87 -11 87 -53 0 -26 -5 -35 -21 -39 -16 -4 -19 -9 -11 -24
6 -10 10 -22 10 -28 1 -5 21 -14 46 -20 55 -12 61 -18 46 -45 -10 -18 -8 -26
9 -44 12 -12 21 -33 21 -45 0 -16 4 -21 15 -18 8 4 17 2 20 -3 3 -5 -11 -12
-32 -16 -21 -4 -42 -10 -48 -14 -5 -4 -18 -7 -27 -7 -13 0 -16 6 -12 24 5 17
2 23 -10 23 -11 0 -16 -9 -16 -31 0 -22 -9 -40 -31 -60 -22 -20 -26 -29 -15
-29 18 0 20 -8 6 -30 -5 -9 -5 -19 1 -26 5 -6 6 -19 3 -29 -5 -13 -14 -15 -40
-10 -28 5 -34 3 -34 -12 0 -9 14 -32 32 -50 17 -18 28 -36 24 -40 -4 -4 -11
-1 -16 7 -7 12 -13 12 -27 4 -13 -8 -19 -26 -20 -60 -4 -120 -10 -168 -21
-172 -23 -7 -12 -24 11 -18 18 4 26 0 34 -17 7 -14 7 -29 2 -39 -12 -22 7 -34
26 -18 12 10 15 9 15 -4 0 -9 -4 -16 -10 -16 -5 0 -10 -7 -10 -15 0 -8 -7 -15
-15 -15 -9 0 -18 -8 -21 -17 -10 -30 -27 -67 -40 -83 -19 -25 -25 -88 -8 -94
8 -3 14 -12 14 -20 0 -8 16 -18 37 -23 48 -11 56 -33 12 -33 -20 0 -42 -9 -56
-22 -13 -12 -26 -18 -30 -14 -5 4 0 13 10 20 21 16 22 30 1 47 -15 12 -19 11
-32 -9 -8 -12 -21 -22 -28 -22 -17 0 -18 -12 -1 -29 10 -11 10 -14 0 -18 -21
-8 -15 -23 15 -34 27 -11 27 -11 4 -20 -29 -11 -33 -79 -4 -79 14 0 15 -2 2
-10 -9 -6 -17 -5 -22 3 -10 14 -37 -16 -39 -42 -1 -9 -2 -25 -3 -35 0 -12 -13
-23 -36 -31 -19 -6 -35 -17 -34 -23 4 -41 6 -46 13 -22 4 16 14 25 26 25 29 0
26 -45 -4 -72 -19 -17 -24 -31 -24 -68 0 -25 5 -51 11 -57 21 -21 13 -56 -18
-80 -28 -20 -29 -23 -15 -44 20 -30 19 -33 -9 -44 -14 -5 -25 -19 -29 -37 -7
-35 0 -46 24 -40 31 8 21 -17 -14 -34 -24 -12 -32 -23 -34 -47 -2 -23 2 -32
12 -32 8 0 15 -7 15 -15 0 -8 -8 -15 -17 -15 -43 -1 -81 -59 -40 -60 7 -1 22
-9 35 -19 17 -15 22 -30 22 -65 0 -33 -4 -46 -14 -46 -8 0 -18 5 -21 10 -3 6
-17 10 -29 10 -20 0 -25 -6 -28 -35 -5 -43 15 -95 37 -95 18 0 19 12 3 28 -9
9 -8 12 4 12 22 0 32 -42 12 -53 -11 -6 -13 -18 -8 -43 5 -28 3 -34 -11 -34
-17 0 -17 -11 0 -53 5 -12 2 -17 -9 -17 -21 0 -21 -43 -1 -60 8 -7 15 -18 15
-24 0 -15 46 -42 87 -51 18 -3 35 -11 38 -16 8 -12 87 -12 121 1 21 8 31 7 44
-5 16 -15 22 -14 66 17 69 48 80 61 79 93 -1 22 -9 34 -28 43 -28 14 -34 27
-17 37 6 4 8 14 5 24 -3 11 4 26 20 41 14 13 25 28 25 34 0 5 9 19 20 31 16
17 18 27 10 54 -9 34 6 91 28 105 6 3 8 15 5 26 -4 14 0 20 12 20 14 0 16 6
10 27 -3 16 -11 33 -17 38 -7 7 -8 3 -4 -12 5 -16 1 -25 -14 -33 -28 -15 -52
-6 -43 16 3 9 1 19 -4 23 -14 9 -24 69 -13 76 6 3 10 17 10 31 0 19 5 24 25
24 31 0 35 34 5 50 -11 6 -20 19 -20 30 0 25 -16 34 -27 16 -7 -12 -11 -12
-30 4 -19 15 -20 19 -7 24 9 3 14 15 13 28 -5 32 8 48 36 48 29 0 41 16 21 27
-19 10 -10 53 10 53 20 0 17 23 -6 48 -25 26 -25 28 -1 35 12 3 22 -1 25 -10
3 -8 14 -13 23 -12 32 4 93 -13 101 -28 14 -24 66 -13 70 15 3 22 19 27 68 23
23 -1 59 42 49 59 -3 5 7 10 22 12 21 2 31 -3 41 -21 6 -13 12 -30 12 -38 0
-10 6 -12 23 -7 30 9 47 24 47 41 0 11 7 14 21 10 27 -7 62 24 53 46 -4 12 -1
17 10 17 9 0 16 5 16 10 0 6 7 10 16 10 11 0 15 6 11 19 -3 13 0 18 7 15 7 -3
22 4 35 15 21 18 25 19 46 5 25 -16 59 -9 51 12 -9 23 18 35 54 23 26 -9 34
-9 41 2 6 11 15 6 37 -19 16 -17 33 -32 38 -32 5 0 15 -9 22 -20 7 -11 18 -17
27 -14 9 4 15 0 15 -8 0 -19 29 -45 55 -50 18 -3 20 -11 18 -71 -1 -68 -1 -69
33 -89 20 -11 33 -26 30 -33 -2 -7 2 -22 10 -33 10 -15 11 -27 5 -45 -11 -29
-3 -39 43 -56 23 -9 27 -16 24 -42 -3 -27 2 -34 31 -50 38 -20 56 -43 46 -59
-7 -11 25 -70 38 -70 4 0 17 5 27 10 16 8 22 6 35 -14 9 -14 26 -26 38 -28 14
-2 21 -9 19 -19 -1 -11 8 -18 28 -23 29 -5 31 -8 25 -40 -4 -20 -2 -36 4 -40
5 -4 8 -13 5 -20 -3 -8 7 -23 23 -35 15 -11 33 -24 38 -29 6 -4 17 -11 26 -14
9 -3 23 -21 32 -40 9 -18 25 -39 36 -45 16 -10 19 -18 12 -35 -5 -13 -8 -32
-7 -43 3 -33 40 -85 60 -85 13 0 16 -5 12 -16 -6 -15 -4 -15 18 0 32 21 36 20
36 -4 0 -14 14 -26 49 -41 38 -17 50 -28 55 -49 6 -30 41 -46 63 -28 9 7 17 7
28 -2 23 -19 61 11 69 53 4 21 16 41 31 51 28 19 33 44 10 53 -9 3 -15 13 -13
22 1 9 -4 27 -11 40 -12 21 -11 29 5 58 15 29 16 42 7 96 l-10 62 39 39 c51
53 51 71 -2 62 -31 -5 -42 -3 -46 9 -8 21 22 65 44 63 43 -3 64 3 69 22 3 10
13 22 23 25 40 13 34 67 -7 63 -22 -3 -25 1 -27 34 -2 28 1 38 16 41 12 4 18
0 18 -13 0 -10 6 -20 14 -23 10 -4 14 3 13 29 -1 26 -5 34 -19 34 -27 0 -21
13 15 31 19 10 31 23 30 33 0 11 4 15 13 12 9 -3 14 1 14 12 0 10 5 23 11 29
8 8 5 13 -11 18 -17 5 -20 12 -15 34 5 24 3 28 -17 27 -18 -1 -22 4 -21 21 3
30 52 78 66 64 6 -6 21 -11 33 -11 15 0 26 -10 34 -30 8 -18 20 -30 31 -30 12
0 23 -10 29 -25 5 -14 16 -25 25 -25 8 0 15 -4 15 -9 0 -6 15 -27 34 -47 19
-21 32 -42 30 -46 -10 -16 18 -38 47 -38 22 0 29 -5 29 -19 0 -26 17 -36 36
-20 12 10 22 5 57 -29 24 -23 48 -42 55 -42 21 0 31 -34 17 -60 -7 -13 -11
-30 -8 -37 3 -8 -3 -20 -13 -28 -18 -13 -18 -14 8 -24 15 -6 33 -19 40 -31 10
-15 23 -20 59 -20 30 0 49 -5 52 -14 3 -7 18 -16 33 -19 40 -7 53 16 54 95 0
58 -2 66 -17 62 -29 -7 -45 10 -38 39 4 16 16 28 32 32 l25 6 -4 130 c-3 125
-4 131 -28 149 l-25 19 28 10 c29 11 36 38 12 47 -8 4 -15 13 -15 21 0 13 3
13 15 3 13 -11 15 16 15 233 0 154 -4 248 -10 252 -7 4 -7 13 0 26 12 21 -2
59 -21 59 -6 0 -9 6 -6 13 7 20 -12 47 -33 47 -11 0 -24 9 -30 20 -6 11 -17
20 -24 20 -18 0 -10 85 11 118 8 13 13 24 11 25 -31 16 -42 28 -40 41 2 9 -6
29 -17 45 -15 20 -17 31 -9 39 13 13 -6 42 -28 42 -8 0 -14 5 -14 10 0 6 -7
10 -15 10 -9 0 -14 -8 -12 -21 1 -12 -4 -24 -10 -26 -8 -3 -13 5 -13 21 0 13
-5 28 -10 31 -6 4 -8 11 -4 16 3 6 -2 16 -12 24 -26 18 -48 1 -33 -26 7 -14 6
-19 -4 -19 -21 0 -37 42 -25 64 8 13 7 21 -3 27 -7 4 -10 12 -5 16 5 4 11 2
13 -4 3 -7 14 -13 24 -13 11 0 18 4 15 9 -3 5 4 12 17 16 19 7 16 9 -18 12
-28 3 -48 13 -66 32 -14 16 -32 30 -40 33 -11 4 -12 9 -2 29 19 39 23 85 10
113 -10 22 -18 26 -59 26 -52 0 -82 22 -100 73 -11 30 -85 71 -111 61 -10 -3
-16 5 -21 27 -7 36 -41 79 -63 79 -7 0 -13 5 -13 10 0 6 7 10 15 10 8 0 15 6
15 14 0 8 3 21 6 30 4 10 1 16 -9 16 -8 0 -17 7 -21 15 -5 15 -84 52 -99 47
-33 -10 -80 60 -63 97 7 15 6 28 -1 39 -5 10 -8 32 -5 50 l4 32 -173 0 c-140
0 -170 -2 -157 -12 20 -16 32 -54 19 -62 -5 -4 -14 2 -20 11 -9 17 -10 17 -16
1 -4 -10 -5 -25 -2 -33 4 -8 2 -17 -3 -20 -16 -10 -12 -38 5 -31 18 6 18 2 5
-44 -8 -29 -7 -39 10 -62 11 -15 20 -34 20 -42 0 -12 7 -14 28 -10 33 7 63
-21 66 -60 0 -14 7 -28 14 -31 6 -2 12 -20 12 -39 0 -26 5 -36 20 -41 22 -7
26 -20 10 -30 -17 -10 -11 -25 14 -36 13 -6 28 -19 32 -29 8 -16 11 -14 26 16
l18 34 -25 0 c-14 0 -25 5 -25 10 0 10 13 14 37 11 6 -1 14 3 18 9 3 5 15 10
26 10 14 0 19 -7 19 -25 0 -15 -6 -25 -14 -25 -7 0 -16 -12 -19 -26 -4 -21 2
-34 25 -56 30 -29 31 -36 12 -100 -4 -12 2 -21 18 -28 58 -23 105 -102 102
-167 -1 -19 3 -33 10 -33 6 0 17 -9 24 -20 7 -11 19 -20 27 -20 8 0 15 -8 15
-19 0 -14 12 -22 46 -30 43 -11 45 -13 31 -29 -9 -10 -15 -31 -14 -47 2 -23 8
-31 27 -33 28 -4 67 -43 71 -69 2 -10 -3 -36 -10 -57 -12 -35 -12 -41 4 -52
10 -8 22 -11 27 -8 5 3 12 -3 15 -15 6 -23 32 -28 51 -9 18 18 47 -9 30 -30
-10 -12 -8 -18 15 -36 34 -27 34 -36 0 -36 l-28 -1 27 -14 c33 -18 40 -40 37
-108 -3 -46 0 -53 20 -63 12 -7 28 -17 34 -23 6 -6 20 -11 30 -11 15 0 18 -5
15 -24 -4 -19 -1 -22 14 -18 12 3 18 -1 18 -12 0 -9 -6 -16 -13 -16 -7 0 -17
-10 -23 -22 -8 -19 -6 -27 12 -43 18 -16 21 -25 14 -42 -11 -27 -35 -29 -79
-7 -18 9 -42 13 -55 10 -17 -4 -31 3 -55 26 -18 18 -28 34 -22 36 6 2 9 8 6
12 -3 5 -12 7 -20 3 -10 -3 -15 1 -15 13 0 9 -7 25 -16 35 -8 9 -17 23 -18 31
-1 7 -13 33 -26 58 -14 25 -28 52 -32 62 -4 9 -20 19 -37 23 -17 4 -37 15 -45
26 -10 15 -20 18 -40 13 -21 -5 -27 -2 -35 19 -8 22 -15 24 -65 24 -31 0 -62
6 -70 12 -10 9 -16 9 -21 1 -4 -6 -14 -9 -22 -6 -19 8 -53 -11 -53 -29 0 -7
-15 -25 -32 -39 -25 -19 -30 -28 -21 -37 8 -8 8 -17 2 -28 -12 -18 4 -71 21
-71 8 0 50 -79 50 -95 0 -1 -16 -10 -35 -19 -22 -11 -35 -24 -35 -36 0 -10 -5
-22 -11 -26 -7 -4 -9 -21 -5 -42 3 -20 1 -42 -6 -49 -8 -10 -7 -18 6 -31 23
-26 20 -34 -19 -61 -19 -13 -35 -27 -35 -32 0 -13 37 -30 53 -23 8 3 17 -2 21
-11 3 -9 0 -18 -9 -20 -8 -3 -22 -7 -30 -10 -8 -2 -17 -17 -20 -32 -4 -15 -10
-36 -16 -45 -5 -10 -9 -27 -9 -38 0 -27 27 -80 41 -80 6 0 9 -6 6 -14 -3 -8 3
-26 14 -40 11 -15 19 -32 16 -39 -3 -7 -9 -2 -14 12 l-9 23 -18 -27 c-19 -28
-31 -26 -31 6 0 10 -4 18 -10 16 -5 -1 -9 -22 -7 -45 2 -50 -14 -53 -38 -7 -8
16 -31 46 -52 67 -24 26 -34 45 -31 58 4 15 -1 21 -23 25 -58 13 -64 17 -70
41 -6 25 -28 32 -40 12 -4 -6 2 -19 15 -29 22 -18 22 -18 -16 -12 -48 7 -51
10 -28 27 18 13 18 13 -1 24 -17 9 -17 11 -3 17 11 4 15 14 12 26 -3 10 0 19
6 19 6 0 11 7 11 15 0 8 -6 15 -13 15 -8 0 -24 11 -37 25 -13 14 -29 25 -36
25 -25 0 -27 23 -4 40 l23 18 -21 11 c-25 13 -29 31 -8 31 8 0 16 7 20 15 9
25 -4 45 -30 45 -13 0 -24 5 -24 10 0 6 -6 10 -14 10 -8 0 -22 13 -31 28 -12
20 -24 27 -43 26 -15 -1 -35 -3 -45 -3 -14 -1 -17 -6 -12 -21 7 -23 -6 -20
-63 15 -33 20 -39 30 -22 40 13 8 13 65 1 65 -5 0 -15 16 -22 35 -7 19 -18 36
-24 37 -5 0 -17 1 -25 2 -8 1 -16 11 -18 24 -2 14 -10 22 -22 22 -29 0 -54 43
-41 69 6 11 11 29 11 40 0 12 7 21 15 21 8 0 15 -5 15 -11 0 -7 8 -6 23 3 12
8 35 18 50 22 24 6 27 9 17 21 -8 9 -9 25 -4 42 4 16 6 33 5 40 -1 7 10 20 25
29 22 15 27 15 35 3 5 -8 9 -22 9 -31 0 -11 8 -18 20 -18 13 0 20 7 20 19 0
11 5 21 12 23 13 5 18 127 5 145 -5 7 -4 20 2 30 5 11 6 25 2 32 -14 22 0 51
24 51 14 0 26 9 34 26 10 23 9 28 -15 47 l-27 21 34 11 c35 12 50 42 29 55
-17 10 -3 30 20 30 38 0 50 11 44 39 -4 14 -11 30 -15 36 -5 5 -9 30 -9 56 0
113 -27 141 -128 132 -49 -3 -60 -1 -66 12 -4 12 -12 14 -28 9 -32 -10 -40
-26 -20 -41 16 -12 16 -14 0 -24 -10 -5 -18 -17 -18 -24 0 -23 -17 -18 -23 6
-5 17 -10 19 -29 13 -48 -16 -63 -11 -60 18 2 19 -3 30 -17 38 -23 12 -28 46
-8 53 6 2 31 -11 55 -30 23 -19 42 -30 42 -25 0 15 74 56 78 43 2 -6 10 -11
17 -11 16 0 26 24 16 36 -13 14 -22 74 -11 74 18 0 11 35 -9 45 -10 6 -36 20
-57 31 -49 27 -133 38 -141 18 -3 -9 -13 -12 -29 -8 -18 5 -24 2 -24 -11 0 -9
-5 -13 -11 -9 -6 3 -8 17 -5 30 9 33 -29 54 -49 27 -13 -17 -14 -17 -33 0 -19
18 -20 17 -42 -18 -24 -38 -44 -38 -34 1 6 21 3 24 -24 24 -17 0 -33 4 -37 10
-3 5 -12 7 -19 4 -8 -3 -37 7 -66 22 -40 21 -54 24 -60 14 -5 -8 -19 -11 -39
-7 -34 7 -58 -3 -124 -54 -51 -38 -66 -69 -37 -76 24 -6 33 -43 15 -63 -8 -9
-12 -20 -9 -23 8 -7 -14 -37 -27 -37 -5 0 -4 11 1 25 8 20 6 27 -5 31 -8 4
-15 13 -15 20 0 8 -11 19 -25 24 -14 5 -25 15 -25 21 0 7 11 27 25 45 41 54
33 71 -45 94 -25 7 -39 15 -32 17 6 3 12 16 12 30 0 22 -3 24 -24 19 -14 -3
-28 -2 -31 4 -3 5 -17 10 -31 10 -14 0 -27 7 -30 15 -4 8 -11 15 -18 15 -18 0
-37 38 -30 64 5 20 2 25 -18 28 -18 2 -22 9 -21 28 2 14 -7 36 -18 50 -20 23
-29 25 -127 28 l-106 4 17 -24z m404 -260 c-3 -8 -6 -5 -6 6 -1 11 2 17 5 13
3 -3 4 -12 1 -19z m-47 -88 c0 -5 -2 -10 -4 -10 -3 0 -8 5 -11 10 -3 6 -1 10
4 10 6 0 11 -4 11 -10z m650 -139 c0 -4 12 -6 28 -4 30 5 69 -18 58 -35 -4 -7
-17 -8 -38 -1 -36 10 -58 -2 -58 -32 0 -24 -12 -30 -49 -23 -21 5 -37 16 -46
35 -15 28 -6 47 16 34 19 -12 59 4 59 25 0 13 5 18 15 14 8 -4 15 -9 15 -13z
m1477 -63 c-3 -8 -6 -5 -6 6 -1 11 2 17 5 13 3 -3 4 -12 1 -19z m-1804 -12
c18 -14 23 -36 8 -36 -6 0 -13 5 -16 10 -14 23 -23 8 -18 -30 6 -40 -9 -56
-21 -24 -4 10 -14 14 -26 11 -15 -4 -20 0 -20 15 0 15 5 19 20 15 11 -3 23 -1
26 4 3 5 -3 9 -13 9 -15 0 -14 4 7 20 30 23 30 23 53 6z m1707 -26 c0 -5 -7
-10 -15 -10 -8 0 -15 5 -15 10 0 6 7 10 15 10 8 0 15 -4 15 -10z m-2025 -40
c34 -35 29 -44 -16 -33 -40 11 -61 39 -39 53 21 14 23 13 55 -20z m1915 15 c0
-8 -7 -15 -16 -15 -14 0 -14 3 -4 15 7 8 14 15 16 15 2 0 4 -7 4 -15z m-1530
-9 c0 -3 -4 -8 -10 -11 -5 -3 -10 -1 -10 4 0 6 5 11 10 11 6 0 10 -2 10 -4z
m-46 -22 c9 -3 16 -15 16 -25 0 -11 7 -19 18 -19 9 0 25 -7 36 -15 14 -11 22
-11 36 -2 14 8 25 8 42 0 14 -6 37 -8 53 -5 18 3 32 0 39 -10 20 -26 60 -46
109 -53 32 -5 51 -14 58 -27 8 -15 17 -18 38 -13 23 5 31 1 47 -22 10 -15 17
-31 16 -35 -1 -4 7 -12 17 -18 22 -11 18 -43 -7 -73 -13 -15 -13 -21 -2 -43
10 -18 11 -30 4 -42 -41 -65 -40 -62 -21 -76 21 -16 22 -26 1 -26 -16 0 -16
-3 3 -62 3 -10 -2 -18 -16 -23 -15 -4 -21 -15 -21 -36 0 -18 -5 -29 -14 -29
-18 0 -26 -22 -19 -49 4 -17 1 -21 -19 -21 -27 0 -68 47 -68 79 0 25 -47 81
-68 82 -11 0 -12 2 -4 6 18 7 16 63 -3 63 -8 0 -15 -7 -15 -15 0 -8 -5 -15
-10 -15 -6 0 -8 10 -4 24 3 13 1 27 -5 31 -18 11 -3 24 22 18 19 -4 20 -3 6 9
-8 7 -18 21 -22 31 -3 9 -13 17 -21 17 -19 0 -106 85 -106 104 0 8 -15 27 -34
44 -38 33 -48 57 -48 111 1 42 -18 91 -34 91 -17 0 -37 27 -29 40 7 12 8 12
29 4z m1671 -14 c3 -6 0 -17 -9 -25 -20 -21 -24 -19 -18 10 5 26 16 32 27 15z
m-905 -34 c0 -17 -14 -29 -23 -20 -8 8 3 34 14 34 5 0 9 -6 9 -14z m970 -41
c0 -8 -4 -15 -10 -15 -5 0 -10 7 -10 15 0 8 5 15 10 15 6 0 10 -7 10 -15z
m-976 -49 c-4 -16 -1 -25 10 -29 22 -9 17 -96 -7 -111 -14 -9 -20 -8 -28 6 -5
10 -17 14 -29 11 -21 -5 -28 11 -10 22 6 3 10 13 10 22 0 23 40 103 51 103 5
0 7 -11 3 -24z m-1274 -11 c5 3 13 -1 17 -10 10 -28 -20 -38 -39 -12 -21 27
-23 44 -3 27 8 -6 19 -9 25 -5z m2489 -9 c10 -11 8 -16 -9 -21 -26 -8 -35 -1
-27 20 8 19 21 19 36 1z m-2182 -52 c4 -10 0 -22 -9 -28 -13 -10 -9 -17 27
-50 39 -36 41 -41 31 -68 -8 -20 -8 -33 0 -46 14 -22 101 -39 125 -24 22 14
40 -5 33 -35 -3 -12 0 -31 6 -44 11 -20 10 -25 -10 -41 -21 -17 -22 -20 -6
-36 9 -10 16 -24 16 -31 0 -8 7 -10 19 -6 25 8 71 -11 71 -30 0 -8 4 -15 9
-15 5 0 11 -15 14 -32 4 -18 9 -48 13 -65 6 -30 4 -33 -19 -33 -30 0 -49 -21
-46 -52 2 -27 -9 -58 -22 -58 -5 0 -9 7 -9 15 0 19 -5 19 -35 -1 -22 -14 -25
-14 -45 6 -18 18 -28 20 -63 15 -55 -9 -65 -20 -43 -44 31 -34 8 -54 -64 -57
-50 -1 -63 2 -73 17 -11 18 -12 18 -33 -2 -25 -24 -68 -18 -87 12 -15 25 -27
24 -27 -1 0 -13 -7 -20 -20 -20 -11 0 -20 -6 -20 -14 0 -8 -5 -18 -12 -22 -8
-5 -9 2 -5 24 4 21 1 34 -9 43 -12 10 -13 14 -1 28 23 26 64 105 65 126 1 11
2 43 1 72 0 28 6 61 13 72 10 17 9 24 -10 44 -12 13 -22 27 -22 30 0 4 20 16
45 27 25 11 45 26 45 34 0 8 13 17 29 21 41 9 51 25 51 76 -1 24 0 53 0 64 1
11 -1 35 -4 53 -4 23 -2 32 8 32 7 0 16 14 20 30 4 22 11 30 26 30 11 0 23 -7
27 -16z m2149 -76 c2 -32 -4 -40 -26 -28 -16 8 -17 14 -7 40 12 33 29 26 33
-12z m-2492 -77 c7 -10 -18 -34 -27 -25 -7 8 3 34 13 34 5 0 11 -4 14 -9z
m1316 -6 c0 -16 -62 -31 -81 -20 -8 6 -4 12 12 21 32 18 69 18 69 -1z m1432
-9 c5 -9 16 -16 23 -16 8 0 15 -3 15 -6 0 -12 -23 -49 -35 -56 -7 -4 -16 -24
-19 -44 l-7 -36 -37 36 c-59 58 -66 63 -94 70 -41 10 -34 28 26 63 30 17 116
10 128 -11z m-142 -107 c0 -5 -4 -9 -10 -9 -5 0 -10 7 -10 16 0 8 5 12 10 9 6
-3 10 -10 10 -16z m-1445 -59 c4 -6 15 -8 26 -5 29 10 23 -14 -7 -26 -15 -5
-27 -8 -28 -7 0 2 -7 13 -14 26 -10 18 -10 22 2 22 8 0 18 -5 21 -10z m-125
-165 c0 -9 -6 -12 -15 -9 -8 4 -15 10 -15 15 0 5 7 9 15 9 8 0 15 -7 15 -15z
m1545 -15 c-3 -5 -11 -10 -16 -10 -6 0 -7 5 -4 10 3 6 11 10 16 10 6 0 7 -4 4
-10z m-1457 -33 c2 -10 -3 -17 -12 -17 -10 0 -16 9 -16 21 0 24 23 21 28 -4z
m-1214 7 c12 -5 13 -9 3 -25 -15 -24 -37 -25 -37 -1 0 28 9 36 34 26z m801
-116 c-2 -26 0 -48 5 -48 10 0 20 -37 12 -45 -10 -9 -62 48 -62 68 0 11 -7 25
-17 32 -26 19 -10 41 30 41 l36 0 -4 -48z m119 -14 c9 -3 14 -10 11 -15 -7
-10 -35 0 -35 12 0 11 3 11 24 3z m2076 -4 c0 -5 -7 -10 -16 -10 -8 0 -12 5
-9 10 3 6 10 10 16 10 5 0 9 -4 9 -10z m70 0 c0 -5 -7 -10 -16 -10 -8 0 -12 5
-9 10 3 6 10 10 16 10 5 0 9 -4 9 -10z m-2050 -18 c0 -13 -12 -22 -22 -16 -10
6 -1 24 13 24 5 0 9 -4 9 -8z m1824 -98 c7 -19 -10 -27 -34 -14 -20 11 -25 22
-14 32 9 9 42 -3 48 -18z m-694 -8 c0 -3 -4 -8 -10 -11 -5 -3 -10 -1 -10 4 0
6 5 11 10 11 6 0 10 -2 10 -4z m350 -60 c0 -3 -4 -8 -10 -11 -5 -3 -10 -1 -10
4 0 6 5 11 10 11 6 0 10 -2 10 -4z m-2172 -53 c-1 -10 1 -24 5 -30 15 -23 -2
-32 -32 -17 l-30 15 22 23 c27 29 39 32 35 9z m-448 -22 c0 -14 -18 -23 -30
-16 -6 4 -8 11 -5 16 8 12 35 12 35 0z m40 -51 c4 0 10 -11 13 -25 3 -19 -1
-29 -15 -36 -24 -13 -48 -5 -48 16 0 9 5 13 10 10 7 -4 8 3 4 21 -6 23 -4 26
10 21 10 -4 21 -7 26 -7z m580 -5 c0 -9 -9 -15 -25 -15 -24 0 -32 10 -18 23
12 13 43 7 43 -8z m2517 -20 c2 -6 -3 -19 -10 -29 -11 -15 -17 -16 -40 -5 -26
12 -26 13 -10 31 17 19 54 21 60 3z m65 -32 c-9 -14 -10 -14 -16 5 -9 29 3 51
16 28 5 -10 5 -23 0 -33z m-3032 17 c0 -10 -31 -22 -38 -16 -2 3 -2 12 1 20 6
15 37 12 37 -4z m270 10 c0 -5 -4 -10 -10 -10 -5 0 -10 5 -10 10 0 6 5 10 10
10 6 0 10 -4 10 -10z m1188 -48 c2 -7 -2 -10 -12 -6 -9 3 -16 11 -16 16 0 13
23 5 28 -10z m1406 1 c5 -11 1 -22 -10 -30 -14 -10 -15 -16 -6 -25 14 -14 16
-28 3 -28 -17 0 -39 46 -34 73 6 31 37 37 47 10z m-734 -37 c0 -21 -12 -24
-39 -10 -21 11 -22 13 -5 17 35 9 44 7 44 -7z m490 -17 c0 -23 -19 -25 -46 -5
-18 14 -18 15 6 24 30 12 40 7 40 -19z m-450 -24 c0 -16 -6 -25 -15 -25 -16 0
-19 9 -9 34 9 25 24 19 24 -9z m700 -25 c0 -5 -4 -10 -10 -10 -5 0 -10 5 -10
10 0 6 5 10 10 10 6 0 10 -4 10 -10z m141 -33 c-1 -12 -15 -9 -19 4 -3 6 1 10
8 8 6 -3 11 -8 11 -12z m-857 -16 c3 -5 -1 -12 -10 -15 -22 -9 -24 -8 -24 9 0
16 25 21 34 6z m-699 -41 c3 -5 -1 -10 -9 -10 -9 0 -16 5 -16 10 0 6 4 10 9
10 6 0 13 -4 16 -10z m1205 -10 c0 -5 -4 -10 -10 -10 -5 0 -10 5 -10 10 0 6 5
10 10 10 6 0 10 -4 10 -10z m34 -45 c-13 -9 -20 -10 -23 -3 -2 6 5 17 15 25
13 9 20 10 22 3 2 -6 -4 -17 -14 -25z m-709 15 c3 -5 1 -10 -4 -10 -6 0 -11 5
-11 10 0 6 2 10 4 10 3 0 8 -4 11 -10z m-2099 -87 c-10 -10 -19 5 -10 18 6 11
8 11 12 0 2 -7 1 -15 -2 -18z m1504 -98 c0 -9 -6 -12 -15 -9 -8 4 -12 10 -9
15 8 14 24 10 24 -6z m683 0 c8 -19 -13 -31 -24 -14 -13 20 -11 29 5 29 8 0
16 -7 19 -15z m-2277 -6 c9 -16 -12 -33 -31 -25 -14 5 -15 9 -5 21 15 18 26
19 36 4z m1844 -99 c0 -5 -4 -10 -9 -10 -6 0 -13 5 -16 10 -3 6 1 10 9 10 9 0
16 -4 16 -10z m-1815 -70 c-5 -8 -11 -8 -17 -2 -6 6 -7 16 -3 22 5 8 11 8 17
2 6 -6 7 -16 3 -22z m135 -31 c0 -5 -4 -9 -10 -9 -5 0 -10 7 -10 16 0 8 5 12
10 9 6 -3 10 -10 10 -16z m1990 -41 c0 -6 -7 -8 -14 -5 -9 4 -17 -2 -21 -14
-11 -35 -38 -19 -29 17 4 16 12 19 35 16 16 -2 29 -9 29 -14z m-1965 -8 c3 -5
1 -10 -4 -10 -6 0 -11 5 -11 10 0 6 2 10 4 10 3 0 8 -4 11 -10z m-315 -181 c0
-5 -4 -9 -10 -9 -5 0 -10 7 -10 16 0 8 5 12 10 9 6 -3 10 -10 10 -16z m174
-38 c18 -7 18 -8 -5 -24 -13 -9 -29 -17 -35 -17 -7 0 -14 -6 -16 -12 -4 -10
-11 -10 -33 0 -30 14 -27 23 17 47 27 15 45 17 72 6z"/>
<path d="M3310 2730 c0 -5 5 -10 11 -10 5 0 7 5 4 10 -3 6 -8 10 -11 10 -2 0
-4 -4 -4 -10z"/>
<path d="M1955 2430 c3 -5 10 -10 16 -10 5 0 9 5 9 10 0 6 -7 10 -16 10 -8 0
-12 -4 -9 -10z"/>
<path d="M1712 2053 c4 -20 18 -26 37 -14 18 12 5 31 -20 31 -14 0 -19 -6 -17
-17z"/>
<path d="M3130 1811 c0 -6 5 -13 10 -16 6 -3 10 1 10 9 0 9 -4 16 -10 16 -5 0
-10 -4 -10 -9z"/>
<path d="M1901 1794 c0 -11 3 -14 6 -6 3 7 2 16 -1 19 -3 4 -6 -2 -5 -13z"/>
<path d="M1522 1779 c2 -7 10 -15 17 -17 8 -3 12 1 9 9 -2 7 -10 15 -17 17 -8
3 -12 -1 -9 -9z"/>
<path d="M640 1520 c0 -5 5 -10 11 -10 5 0 7 5 4 10 -3 6 -8 10 -11 10 -2 0
-4 -4 -4 -10z"/>
<path d="M605 730 c3 -5 8 -10 11 -10 2 0 4 5 4 10 0 6 -5 10 -11 10 -5 0 -7
-4 -4 -10z"/>
<path d="M583 568 c2 -7 10 -13 17 -13 7 0 15 6 18 13 2 7 -5 12 -18 12 -13 0
-20 -5 -17 -12z"/>
<path d="M494 539 c-3 -6 -2 -15 2 -19 12 -12 38 5 30 19 -9 14 -23 14 -32 0z"/>
</g>
</svg>
